<svg width="16" height="16" viewBox="0 0 16 16" fill="none" xmlns="http://www.w3.org/2000/svg">
<g clip-path="url(#clip0_1_26)">
<path fill-rule="evenodd" clip-rule="evenodd" d="M7.08298 15.9862C8.42241 16.1388 9.41676 15.0044 9.41677 13.8032V13.3026C9.41677 11.9743 10.0635 11.1796 10.7343 10.6894C11.0625 10.4495 11.3946 10.2859 11.6528 10.1809C11.9559 10.7021 12.5204 11.0525 13.1667 11.0525H14.1667C15.1332 11.0525 15.9167 10.269 15.9167 9.30249V1.80249C15.9167 0.835992 15.1332 0.0524904 14.1667 0.0524903L13.1667 0.0524902C12.392 0.0524901 11.7349 0.555885 11.5046 1.25342C10.9801 1.17854 10.4373 1.02479 9.77939 0.838435L9.77919 0.83838C9.62763 0.79545 9.46996 0.75079 9.30499 0.704966C8.15103 0.38442 6.76415 0.0526041 4.91677 0.0526039C3.211 0.0526038 1.94711 0.204941 1.19521 1.19182C0.842179 1.65518 0.658208 2.23381 0.526421 2.8639C0.409094 3.42487 0.318636 4.1076 0.213992 4.89742L0.213986 4.89746L0.173353 5.20347C-0.0757762 7.07183 -0.091653 8.52141 0.361962 9.51924C0.60591 10.0559 0.983952 10.4618 1.49847 10.7194C1.99278 10.9668 2.56367 11.0526 3.16677 11.0526H4.58908L4.57401 11.1649L4.574 11.165C4.50432 11.6832 4.41677 12.3344 4.41677 12.8026C4.41677 13.7241 4.56804 14.5212 5.0723 15.102C5.58367 15.691 6.31954 15.8992 7.08298 15.9862ZM11.4167 2.75375C10.7114 2.66528 10.0262 2.46964 9.34464 2.27505H9.34463C9.19748 2.23303 9.05049 2.19107 8.90352 2.15024C7.80749 1.84579 6.56939 1.5526 4.91677 1.5526C3.12255 1.5526 2.63645 1.77527 2.38836 2.10088C2.24139 2.29378 2.11286 2.60577 1.99465 3.17099C1.88959 3.6733 1.8071 4.29501 1.70017 5.10092L1.66019 5.40173C1.40929 7.28338 1.47078 8.3338 1.72748 8.89847C1.83869 9.1431 1.98198 9.28398 2.16985 9.37802C2.37792 9.48216 2.69049 9.5526 3.16677 9.5526H4.91714C5.60229 9.5526 6.21172 10.1296 6.12231 10.8885C6.09977 11.0799 6.07325 11.2775 6.04689 11.474C5.98134 11.9624 5.91677 12.4436 5.91677 12.8026C5.91677 13.6112 6.06113 13.953 6.20497 14.1186C6.3417 14.2761 6.60639 14.4221 7.25282 14.4958C7.55952 14.5308 7.91676 14.2588 7.91677 13.8032V13.3026C7.91677 11.3809 8.89503 10.1756 9.84924 9.47831C10.3193 9.13481 10.7851 8.91143 11.1319 8.7736C11.2379 8.73148 11.3339 8.69692 11.4167 8.66906V2.75375ZM13.1667 9.55249C13.0287 9.55249 12.9167 9.44056 12.9167 9.30249V2.0526V1.80249C12.9167 1.66442 13.0287 1.55249 13.1667 1.55249H14.1667C14.3048 1.55249 14.4167 1.66442 14.4167 1.80249V9.30249C14.4167 9.44056 14.3048 9.55249 14.1667 9.55249H13.1667Z" fill="#B3B3B3"/>
</g>
<defs>
<clipPath id="clip0_1_26">
<rect width="16" height="16" fill="white"/>
</clipPath>
</defs>
</svg>
