<svg width="434" height="351" viewBox="0 0 434 351" fill="none" xmlns="http://www.w3.org/2000/svg">
<path fill-rule="evenodd" clip-rule="evenodd" d="M188.75 124.969C188.75 157.951 161.346 184.688 127.542 184.688C93.7372 184.688 66.3333 157.951 66.3333 124.969C66.3333 91.987 93.7372 65.25 127.542 65.25C161.346 65.25 188.75 91.987 188.75 124.969ZM160.5 124.969C160.5 142.728 145.744 157.125 127.542 157.125C109.339 157.125 94.5833 142.728 94.5833 124.969C94.5833 107.209 109.339 92.8125 127.542 92.8125C145.744 92.8125 160.5 107.209 160.5 124.969Z" fill="#B3B3B3"/>
<path fill-rule="evenodd" clip-rule="evenodd" d="M400.625 350.062C418.827 350.062 433.583 335.666 433.583 317.906V33.0937C433.583 15.3343 418.827 0.9375 400.625 0.9375H33.375C15.1726 0.9375 0.416656 15.3343 0.416656 33.0938V317.906C0.416656 335.666 15.1726 350.062 33.375 350.062H400.625ZM33.375 28.5C30.7747 28.5 28.6667 30.5567 28.6667 33.0938V317.906C28.6667 320.443 30.7746 322.5 33.375 322.5H93.2278L254.659 156.707C267.424 143.598 288.754 143.331 301.859 156.117L405.333 257.073V33.0937C405.333 30.5567 403.225 28.5 400.625 28.5H33.375ZM405.333 317.906V296.052L281.884 175.607C280.011 173.78 276.964 173.818 275.141 175.691L132.193 322.5H400.625C403.225 322.5 405.333 320.443 405.333 317.906Z" fill="#B3B3B3"/>
</svg>
